PathFileType	4	(X/Y/Z)	7_coords_data.trc
DataRate	CameraRate	NumFrames	NumMarkers	Units	OrigDataRate	OrigDataStartFrame	OrigNumFrames
30.0	30.0	4	21	m	30.0	1	68
Frame#	Time	THUMB_TIP	THUMB_IP	THUMB_MCP	THUMB_CMC	INDEX_TIP	INDEX_DIP	INDEX_PIP	INDEX_MCP	MIDDLE_TIP	MIDDLE_DIP	MIDDLE_PIP	MIDDLE_MCP	RING_TIP	RING_DIP	RING_PIP	RING_MCP	PINKY_TIP	PINKY_DIP	PINKY_PIP	PINKY_MCP	WRIST
X1	Y1	Z1	X2	Y2	Z2	X3	Y3	Z3	X4	Y4	Z4	X5	Y5	Z5	X6	Y6	Z6	X7	Y7	Z7	X8	Y8	Z8	X9	Y9	Z9	X10	Y10	Z10	X11	Y11	Z11	X12	Y12	Z12	X13	Y13	Z13	X14	Y14	Z14	X15	Y15	Z15	X16	Y16	Z16	X17	Y17	Z17	X18	Y18	Z18	X19	Y19	Z19	X20	Y20	Z20	X21	Y21	Z21
0	-2.749317978547796e-18	0.5436614483821454	-0.015944796943878736	-0.1330399375876423	0.521157959352871	-0.012522759327945332	-0.12989627092839426	0.4936279746074669	-0.0075439899000043775	-0.116253258251525	0.47354564385084835	-0.015370881739542819	-0.07719778801349123	0.5605765021530567	0.03289166255430431	-0.16318888320881317	0.5483162008275551	0.03714328808851386	-0.15055524985475552	0.5304281089737911	0.03848747446341316	-0.1329422102016791	0.5036602073883053	0.03277855253272988	-0.10031517004938958	0.5113551309153064	-0.013290049474991683	-0.11001254065683164	0.5230843597277933	-0.00551536503371397	-0.12141339471707116	0.5443869358169724	0.013888753613837679	-0.11704418638186032	0.5188907743352492	0.026952455486988436	-0.08275959269800087	0.5188221072683715	-0.02138185875399201	-0.10924798039658021	0.5356467099636684	-0.014992179964872121	-0.11029905085914915	0.5523446055649072	0.0008378411645439954	-0.10077168540313919	0.5306258339950233	0.014796236868508728	-0.0696561107681313	0.6021581942396697	0.018457719168452402	-0.06434396080694446	0.5858760572031165	0.013177073512312898	-0.06442639245861742	0.5657994791551931	0.007110357835890313	-0.06539489325215872	0.5322059391151348	-0.005684424114627107	-0.06833616396661435	0.4622830810018609	-0.023011742144276925	-0.051989820119430985
1	0.03333333333333339	0.5450085171103454	-0.016065122108625318	-0.1318778079126816	0.5224582807912893	-0.012741687094276921	-0.12897236101760196	0.4945999217639514	-0.008228493025863814	-0.11584365538434221	0.47302327014364837	-0.015712651728003846	-0.07752492010540518	0.5611427894334493	0.03310878707358966	-0.16298353136310023	0.5488344461278036	0.037160773431097915	-0.150331018109642	0.5309604834883557	0.03868127945911659	-0.1327179731150258	0.5038843873408952	0.03251069432867981	-0.10043105640621758	0.5107040748167619	-0.012255934203558305	-0.10993088947208637	0.524023928635726	-0.005723004473501936	-0.12031849378605478	0.5446953021286177	0.01443870612306919	-0.1163676339128766	0.5189022364446608	0.027269422181694147	-0.08221740098473929	0.5190566452627221	-0.02113809864910854	-0.10747576853052249	0.5357215946768369	-0.014560723905999606	-0.10948016432819055	0.5526670097024073	0.0011004785848409693	-0.10011215359207021	0.5307063278849362	0.014906832140254567	-0.06909870667601911	0.6026419306940218	0.018375561407524166	-0.06393032416271033	0.5864164913733347	0.012922830442622546	-0.06398365215816942	0.5663264906374323	0.006892497233652151	-0.06489960566148306	0.5323234969907825	-0.004953473453759627	-0.06698595475472591	0.4622830810018609	-0.023011742144276925	-0.051989820119430985
2	0.06666666666666676	0.5460747163318793	-0.01606135023703592	-0.13085677349966685	0.5234857285119235	-0.012835571022327352	-0.1281490110049407	0.49537714392175647	-0.008691003079541848	-0.11543877776927353	0.4726548733229874	-0.015962180331455578	-0.07774635943073271	0.5616700540524628	0.033587383847584085	-0.1628057288076576	0.5492618651555004	0.03727959480728371	-0.1501406418941631	0.5313589708836639	0.03872047712311122	-0.13255030170861287	0.5040735594759207	0.03232135563026506	-0.10048484268445429	0.510482238449538	-0.01139927808985186	-0.10984050611420343	0.5248279654003831	-0.005827402678627136	-0.11938798340684922	0.5449734030054485	0.01491566207085504	-0.11574159361704198	0.5189137896512322	0.027551427873765744	-0.08172127769548207	0.519340242544429	-0.02087434104988184	-0.1060128707662551	0.535847274562853	-0.014155678517694281	-0.10872902019537511	0.5529668483886331	0.0013745230722881363	-0.0994600930946706	0.5307595277109606	0.015048157188230049	-0.0685636940750054	0.6030036723725081	0.018236879974714126	-0.06342987383319271	0.5868101710414103	0.012689834849395565	-0.063458246661969	0.566699454223931	0.006724282065246556	-0.06434327099309387	0.5324017558683412	-0.004337728259196205	-0.06582085892310152	0.4622830810018609	-0.023011742144276925	-0.051989820119430985
3	0.10000000000000014	0.5469116081711729	-0.015942776659467195	-0.12999998167832805	0.5242908360478878	-0.01281243098899365	-0.12745015726677317	0.49599612151108863	-0.008948860804971925	-0.11506864061031391	0.4724296816658151	-0.016124428341887875	-0.07787960803964508	0.5621481325989879	0.03428035554395603	-0.16265251220481047	0.5496032109898984	0.037476573469029995	-0.14998723949565668	0.5316377527008018	0.03862766133014017	-0.132439386686873	0.5042293744832987	0.0322041983162632	-0.10048385476522195	0.5105159548152793	-0.010736641274025072	-0.10969507808620615	0.5254989373170991	-0.005846106802578355	-0.11861656383319671	0.5452266995259496	0.015328019338204824	-0.11516963325582058	0.5189250443015796	0.027798716100622234	-0.08127490541035473	0.5196415520340542	-0.020605311838523876	-0.10485176581574587	0.5360180294349246	-0.013781212477012472	-0.10805218076431147	0.5532429314116593	0.0016565199519594787	-0.09882400931253682	0.5307874467061964	0.015215031637877963	-0.06805651345236757	0.6032786024376533	0.018065911429654524	-0.06285918794463291	0.5870941808296222	0.012492364742840878	-0.06286782179665373	0.5669575062811949	0.006613479829226776	-0.06374250419798635	0.5324516408102221	-0.003828428396328687	-0.06483577987603231	0.4622830810018609	-0.023011742144276925	-0.051989820119430985
